# xmcd
#
# Track frame offsets: 
#        150
#        14048
#        29956
#        43749
#        54924
#        71394
#        81377
#        98695
#        116643
#        133841
#        145819
#        161224
#
# Disc length: 2320 seconds
#
# Revision: 0
# Processed by: cddbd v1.5.2PL0 Copyright (c) Steve Scherf et al.
# Submitted via: ExactAudioCopy v0.99pb5
#
DISCID=b0090e0c
DTITLE=Abby Christodoulou - Til Next Summer
DYEAR=2014
DGENRE=Country
TTITLE0=Compass
TTITLE1=More Like Her
TTITLE2=When It Rains
TTITLE3=Ready To Run
TTITLE4=Tomorrow
TTITLE5=You Ain't Woman Enough
TTITLE6=I Will Wait
TTITLE7=Mean
TTITLE8=Never Alone
TTITLE9=Blue Moon Of Kentucky
TTITLE10=White Liar
TTITLE11=We Owned The Night
EXTD=
EXTT0=
EXTT1=
EXTT2=
EXTT3=
EXTT4=
EXTT5=
EXTT6=
EXTT7=
EXTT8=
EXTT9=
EXTT10=
EXTT11=
PLAYORDER=
